<svg xmlns="http://www.w3.org/2000/svg" width="40" height="32" fill="none"><path fill="#fff" d="M34.29 18.32v11.9c0 .43-.156.802-.47 1.116a1.526 1.526 0 0 1-1.117.471h-9.527v-9.52h-6.352v9.52H7.297c-.43 0-.802-.157-1.116-.47a1.524 1.524 0 0 1-.472-1.116v-11.9c0-.017.004-.042.013-.075a.34.34 0 0 0 .012-.074L20 6.421l14.266 11.751a.345.345 0 0 1 .025.149Zm5.534-1.71-1.539 1.835a.844.844 0 0 1-.52.272h-.075a.763.763 0 0 1-.521-.173L20 4.239 2.831 18.544a.922.922 0 0 1-.595.173.844.844 0 0 1-.521-.272L.176 16.61a.804.804 0 0 1-.173-.582.72.72 0 0 1 .273-.533L18.114.645C18.644.215 19.272 0 20 0s1.356.215 1.886.645l6.053 5.057V.868c0-.232.075-.422.224-.57a.773.773 0 0 1 .57-.224h4.764c.231 0 .422.075.57.223a.772.772 0 0 1 .224.57v10.116l5.433 4.512a.72.72 0 0 1 .273.533.803.803 0 0 1-.173.582Z"/></svg>