<svg xmlns="http://www.w3.org/2000/svg" width="40" height="40" fill="none"><path fill="url(#a)" d="M40 20c0-1.91-3.185-2.97-3.385-3.88-.2-.91 2.222-3.312 1.407-5.001-.815-1.69-4.11-1.228-4.689-1.986-.577-.758.608-3.94-.844-5.13s-4.222.712-5.082.288C26.548 3.867 26.282.5 24.444.047 22.607-.407 21 2.571 20 2.571S17.326-.362 15.556.047c-1.77.41-2.112 3.835-2.963 4.244-.852.41-3.63-1.47-5.082-.288s-.26 4.372-.844 5.13c-.586.758-3.89.258-4.69 1.986-.8 1.727 1.623 4.039 1.408 5.001C3.17 17.082 0 18.083 0 20c0 1.917 3.185 2.97 3.385 3.88.2.91-2.222 3.312-1.407 5.001.815 1.69 4.11 1.228 4.703 1.986s-.607 3.94.845 5.13 4.222-.712 5.081-.288c.86.424 1.126 3.79 2.963 4.244 1.837.454 3.43-2.524 4.43-2.524.844 0 2.533 2.562 4.089 2.562.122.002.244-.011.363-.038 1.807-.425 2.111-3.835 2.963-4.244.852-.41 3.63 1.47 5.081.288 1.452-1.182.26-4.372.845-5.13s3.903-.288 4.703-1.986c.8-1.697-1.622-4.039-1.407-5.001C36.852 22.918 40 21.917 40 20Z"/><path fill="url(#b)" d="M20 34c7.732 0 14-6.268 14-14S27.732 6 20 6 6 12.268 6 20s6.268 14 14 14Z"/><path fill="#C1C1C1" d="M16.198 23.84a77.845 77.845 0 0 0 3.06-2.66c.76-.72 1.393-1.467 1.9-2.24.506-.773.76-1.533.76-2.28 0-.68-.16-1.213-.48-1.6-.32-.387-.813-.58-1.48-.58s-1.18.227-1.54.68c-.36.44-.547 1.047-.56 1.82h-2.72c.053-1.6.527-2.813 1.42-3.64.907-.827 2.053-1.24 3.44-1.24 1.52 0 2.686.407 3.5 1.22.813.8 1.22 1.86 1.22 3.18 0 1.04-.28 2.033-.84 2.98-.56.947-1.2 1.773-1.92 2.48-.72.693-1.66 1.533-2.82 2.52h5.9v2.32h-9.88v-2.08l1.04-.88Z"/><defs><linearGradient id="a" x1="20" x2="20" y1=".009" y2="39.991" gradientUnits="userSpaceOnUse"><stop stop-color="#D2D2D2"/><stop offset="1" stop-color="#8A8A8A"/></linearGradient><linearGradient id="b" x1="20" x2="20" y1="6" y2="34" gradientUnits="userSpaceOnUse"><stop stop-color="#fff"/><stop offset="1" stop-color="#E6E6E6"/></linearGradient></defs></svg>